<?xml version="1.0" encoding="utf-8"?>
<!-- Generator: Adobe Illustrator 19.0.0, SVG Export Plug-In . SVG Version: 6.00 Build 0)  -->
<svg version="1.1" id="图层_1" xmlns="http://www.w3.org/2000/svg" xmlns:xlink="http://www.w3.org/1999/xlink" x="0px" y="0px"
	 viewBox="0 0 174.2 174.2" style="enable-background:new 0 0 174.2 174.2;" xml:space="preserve">
<style type="text/css">
	.st0{clip-path:url(#SVGID_2_);fill:#333;}
</style>
<g>
	<defs>
		<rect id="SVGID_1_" y="0" width="174.2" height="174.2"/>
	</defs>
	<clipPath id="SVGID_2_">
		<use xlink:href="#SVGID_1_"  style="overflow:visible;"/>
	</clipPath>
	<path class="st0" d="M87.1,6c44.7,0,81.1,36.4,81.1,81.1c0,44.7-36.4,81.1-81.1,81.1S6,131.8,6,87.1C6,42.4,42.4,6,87.1,6 M87.1,0
		C39.1,0,0,39.1,0,87.1c0,48,39.1,87.1,87.1,87.1c48,0,87.1-39.1,87.1-87.1C174.2,39.1,135.2,0,87.1,0"/>
	<path class="st0" d="M69.1,106.8c0,5.5,3.9,7.7,8.6,5l34.1-19.7c4.7-2.7,4.7-7.2,0-9.9L77.7,62.5c-4.7-2.7-8.6-0.5-8.6,5V106.8z"/>
</g>
</svg>
