<?xml version="1.0" encoding="utf-8"?>
<!-- Generator: Adobe Illustrator 19.0.0, SVG Export Plug-In . SVG Version: 6.00 Build 0)  -->
<svg version="1.1" id="图层_1" xmlns="http://www.w3.org/2000/svg" xmlns:xlink="http://www.w3.org/1999/xlink" x="0px" y="0px"
	 viewBox="0 0 209.3 209.7" style="enable-background:new 0 0 209.3 209.7;" xml:space="preserve">
<style type="text/css">
	.st0{fill:none;stroke:#7cb0f4;stroke-width:18;stroke-linejoin:round;stroke-miterlimit:10;}
	.st1{fill:none;stroke:#7cb0f4;stroke-width:18;stroke-linecap:round;stroke-linejoin:round;stroke-miterlimit:10;}
</style>
<g>
	<path class="st0" d="M167.1,101.3l22.8-22.8l0.2-0.2l2.9-3.2l0,0c5.4-5.5,8-13.2,7.3-21.6c-0.7-8.2-4.5-16.6-11.3-23.4l0,0
		l-9.8-9.7l0,0c-6.7-6.8-15.2-10.6-23.3-11.3c-8.5-0.7-16.4,2-21.8,7.5l-0.2,0.2l-2.7,3.1l-22.7,22.7l-85.2,85.1l-1.4,2.6L9.1,192
		c-0.4,2.2,0.4,4.6,2.2,6.4c1.8,1.8,4.2,2.6,6.4,2.2l61.7-12.6l2.6-1.4L167.1,101.3z"/>
	<line class="st0" x1="26.3" y1="125.6" x2="84.2" y2="183.4"/>
</g>
<line class="st1" x1="11" y1="200.7" x2="195.5" y2="200.7"/>
</svg>
