<?xml version="1.0" encoding="utf-8"?>
<!-- Generator: Adobe Illustrator 19.0.0, SVG Export Plug-In . SVG Version: 6.00 Build 0)  -->
<svg version="1.1" id="图层_1" xmlns="http://www.w3.org/2000/svg" xmlns:xlink="http://www.w3.org/1999/xlink" x="0px" y="0px"
	 viewBox="0 0 165.6 59.8" style="enable-background:new 0 0 165.6 59.8;" xml:space="preserve">
<style type="text/css">
	.st0{clip-path:url(#SVGID_2_);}
	.st1{opacity:0.2;clip-path:url(#SVGID_4_);}
	.st2{clip-path:url(#SVGID_6_);}
	.st3{clip-path:url(#SVGID_8_);fill:url(#SVGID_9_);}
	.st4{clip-path:url(#SVGID_11_);fill:url(#SVGID_12_);}
	.st5{clip-path:url(#SVGID_14_);fill:url(#SVGID_15_);}
	.st6{clip-path:url(#SVGID_17_);fill:url(#SVGID_18_);}
	.st7{clip-path:url(#SVGID_20_);fill:url(#SVGID_21_);}
	.st8{clip-path:url(#SVGID_23_);fill:url(#SVGID_24_);}
	.st9{clip-path:url(#SVGID_26_);fill:url(#SVGID_27_);}
	.st10{clip-path:url(#SVGID_29_);}
	.st11{clip-path:url(#SVGID_31_);fill:url(#SVGID_32_);}
	.st12{clip-path:url(#SVGID_29_);fill:#FFFFFF;}
	.st13{clip-path:url(#SVGID_34_);fill:url(#SVGID_35_);}
	.st14{clip-path:url(#SVGID_37_);fill:#FFFFFF;}
	.st15{clip-path:url(#SVGID_39_);fill:url(#SVGID_40_);}
	.st16{clip-path:url(#SVGID_42_);fill:url(#SVGID_43_);}
	.st17{clip-path:url(#SVGID_45_);fill:url(#SVGID_46_);}
	.st18{clip-path:url(#SVGID_48_);fill:url(#SVGID_49_);}
	.st19{clip-path:url(#SVGID_51_);fill:url(#SVGID_52_);}
	.st20{clip-path:url(#SVGID_54_);fill:url(#SVGID_55_);}
	.st21{clip-path:url(#SVGID_57_);fill:url(#SVGID_58_);}
</style>
<g>
	<defs>
		<rect id="SVGID_1_" x="0.1" y="1.6" width="162.7" height="56.6"/>
	</defs>
	<clipPath id="SVGID_2_">
		<use xlink:href="#SVGID_1_"  style="overflow:visible;"/>
	</clipPath>
	<g class="st0">
		<defs>
			<rect id="SVGID_3_" x="0.1" y="1.6" width="162.7" height="56.6"/>
		</defs>
		<clipPath id="SVGID_4_">
			<use xlink:href="#SVGID_3_"  style="overflow:visible;"/>
		</clipPath>
		<g class="st1">
			<g>
				<defs>
					<rect id="SVGID_5_" x="56.4" y="5.1" width="106.5" height="51.3"/>
				</defs>
				<clipPath id="SVGID_6_">
					<use xlink:href="#SVGID_5_"  style="overflow:visible;"/>
				</clipPath>
				<g class="st2">
					<defs>
						<path id="SVGID_7_" d="M124.3,38.5c1-0.6,1.2-1.8,0.7-2.8c-0.7-1.5-1.5-3.1-2.2-4.6c-0.5-1-1.9-1.3-2.8-0.7
							c-1.1,0.6-1.2,1.8-0.7,2.8c0.7,1.6,1.5,3.1,2.2,4.6C121.9,38.8,123.4,39.1,124.3,38.5"/>
					</defs>
					<clipPath id="SVGID_8_">
						<use xlink:href="#SVGID_7_"  style="overflow:visible;"/>
					</clipPath>
					
						<linearGradient id="SVGID_9_" gradientUnits="userSpaceOnUse" x1="0.1051" y1="58.164" x2="1.1051" y2="58.164" gradientTransform="matrix(115.9327 4.1194 4.1194 -115.9327 -186.3709 6775.1118)">
						<stop  offset="0" style="stop-color:#FFB6DE"/>
						<stop  offset="0.1575" style="stop-color:#FBB5DF"/>
						<stop  offset="0.3129" style="stop-color:#EFB3E1"/>
						<stop  offset="0.4676" style="stop-color:#DBB0E5"/>
						<stop  offset="0.6218" style="stop-color:#C0ACEB"/>
						<stop  offset="0.7758" style="stop-color:#9CA6F2"/>
						<stop  offset="0.9275" style="stop-color:#709FFA"/>
						<stop  offset="1" style="stop-color:#599BFF"/>
					</linearGradient>
					<polygon class="st3" points="118.8,29.6 125.8,29.8 125.5,39.3 118.5,39.1 					"/>
				</g>
				<g class="st2">
					<defs>
						<path id="SVGID_10_" d="M135.6,18.5c5.1-1.7,14.8-3.7,19.2,0.5c1.9,1.8,4.9-1.1,2.9-2.9c-5.7-5.4-16.5-3.8-23.2-1.6
							C131.9,15.4,133,19.4,135.6,18.5"/>
					</defs>
					<clipPath id="SVGID_11_">
						<use xlink:href="#SVGID_10_"  style="overflow:visible;"/>
					</clipPath>
					
						<linearGradient id="SVGID_12_" gradientUnits="userSpaceOnUse" x1="0.1051" y1="58.1644" x2="1.1051" y2="58.1644" gradientTransform="matrix(115.9327 4.1194 4.1194 -115.9327 -185.6806 6755.686)">
						<stop  offset="0" style="stop-color:#FFB6DE"/>
						<stop  offset="0.1575" style="stop-color:#FBB5DF"/>
						<stop  offset="0.3129" style="stop-color:#EFB3E1"/>
						<stop  offset="0.4676" style="stop-color:#DBB0E5"/>
						<stop  offset="0.6218" style="stop-color:#C0ACEB"/>
						<stop  offset="0.7758" style="stop-color:#9CA6F2"/>
						<stop  offset="0.9275" style="stop-color:#709FFA"/>
						<stop  offset="1" style="stop-color:#599BFF"/>
					</linearGradient>
					<polygon class="st4" points="132,9.7 160,10.7 159.6,21.8 131.6,20.8 					"/>
				</g>
				<g class="st2">
					<defs>
						<path id="SVGID_13_" d="M130.4,19.7c-0.4,1.7-0.8,3.3-1.2,5c-2.8-2.3-5.9-3.3-9.6-3.3c0.5-3.5,1.2-7,2.2-10.4
							c0.7-2.6-3.3-3.7-4-1.1c-1.1,3.9-1.9,7.8-2.4,11.8c-2.4,0.3-4.7,0.8-7.1,0.6c-4.1-0.3-7.5-2.4-10.9-4.4
							c-2.8-1.6-5.7-2.8-8.6-3.6c1.2-1.6,2.4-3.2,3.7-4.8c1.6-2.1-2-4.2-3.6-2.1c-1.5,2-3.1,4.1-4.6,6.1c-7.2-0.8-14.4,0.9-21.4,4.9
							c-2.3,1.3-0.2,4.9,2.1,3.6c4.9-2.8,10.8-4.8,16.6-4.9C73.3,27.7,65,38.5,56.8,49.3c-1.6,2.1,2,4.2,3.6,2.1
							c6.6-8.6,13.2-17.2,19.7-25.8c-3.9,8.3-5.9,21.5,5.6,24.4c10.8,2.8,18.9-7.3,21-16.7c0.1-0.4,0.1-0.8-0.1-1.1c0,0,0,0,0,0
							c0-0.1,0-0.1-0.1-0.2c-0.2-0.5-0.6-1-1.3-1.2c-7.5-2.2-15-4.6-22.5-6.9c-0.5-0.2-1.1,0-1.6,0.2c1.7-2.3,3.4-4.5,5.2-6.8
							c0.3,0.1,0.6,0.1,0.9,0.2c4.8,1.2,8.7,4.5,13.1,6.5c3.2,1.5,6.3,2.3,9.8,2.2c1.7,0,3.3-0.2,4.8-0.4c-0.1,1.5-0.2,3-0.2,4.5
							c-0.6-1.5-2.8-2.2-3.7-0.4c-1.5,3.1-3.1,6.1-4.6,9.2c-1.2,2.4,2.4,4.5,3.6,2.1c1.5-3.1,3.1-6.1,4.6-9.2c0-0.1,0-0.1,0.1-0.2
							c0,5.4,0.4,10.8,1.5,16.2c0.5,2.6,4.5,1.5,4-1.1c-1.5-7.2-1.8-14.4-1.1-21.5c3.1,0,6,0.6,8.8,3.5c0.1,0.1,0.1,0.1,0.2,0.1
							c-1.9,7.3-3.8,14.5-5.5,21.8c-0.6,2.6,3.4,3.7,4,1.1c2.5-10.5,5.4-20.9,7.9-31.4C135,18.2,131,17.1,130.4,19.7 M87.1,28.7
							c4.4,1.4,11.9,3.6,16.3,4.9c-2,5.7-7,9.7-12,8.2C85.3,40.1,85.2,33,87.1,28.7"/>
					</defs>
					<clipPath id="SVGID_14_">
						<use xlink:href="#SVGID_13_"  style="overflow:visible;"/>
					</clipPath>
					
						<linearGradient id="SVGID_15_" gradientUnits="userSpaceOnUse" x1="0.1051" y1="58.1649" x2="1.1051" y2="58.1649" gradientTransform="matrix(115.9327 4.1194 4.1194 -115.9327 -186.2485 6771.6685)">
						<stop  offset="0" style="stop-color:#FFB6DE"/>
						<stop  offset="0.1575" style="stop-color:#FBB5DF"/>
						<stop  offset="0.3129" style="stop-color:#EFB3E1"/>
						<stop  offset="0.4676" style="stop-color:#DBB0E5"/>
						<stop  offset="0.6218" style="stop-color:#C0ACEB"/>
						<stop  offset="0.7758" style="stop-color:#9CA6F2"/>
						<stop  offset="0.9275" style="stop-color:#709FFA"/>
						<stop  offset="1" style="stop-color:#599BFF"/>
					</linearGradient>
					<polygon class="st5" points="55.2,2.3 136.8,5.2 134.9,57.6 53.4,54.7 					"/>
				</g>
				<g class="st2">
					<defs>
						<path id="SVGID_16_" d="M161.8,29.1c-2.3-1.1-4.7-1.9-7.3-2.4c-0.4-2.1-1.6-3.9-4.1-4.9c-1.2-0.5-2.4-0.7-3.7-0.8
							c-0.1-0.6-0.3-1.1-0.4-1.7c-0.7-2.6-4.7-1.5-4,1.1c0.1,0.3,0.1,0.5,0.2,0.8c-1.7,0.3-3.4,0.7-5,1.1c-2.6,0.6-1.5,4.6,1.1,4
							c1.5-0.4,3-0.8,4.6-1c0,0.3,0.1,0.6,0.1,1c-3.4,0.4-6.7,1.2-9.7,2.4c-2.5,0.9-1.4,5,1.1,4c2.7-1,5.7-1.8,8.7-2.2
							c0,0.6,0,1.1-0.1,1.7c-6.5,0.8-11.5,5.9-11.5,12c0,6.7,5.9,12.1,13.2,12.1c7.3,0,13.2-5.4,13.2-12.1c0-4.3-2.5-8.1-6.2-10.2
							c0.9,0.1,1.9-0.3,2.2-1.5c0.1-0.5,0.2-1.1,0.3-1.6c1.8,0.4,3.5,1,5.1,1.8C162.1,33.9,164.2,30.3,161.8,29.1 M147.6,25.3
							c0.9,0.1,1.6,0.4,2,0.8c-0.7,0-1.4,0-2.1,0c0-0.3,0-0.5-0.1-0.8C147.5,25.3,147.5,25.3,147.6,25.3 M148.9,46.3
							c-3,0-5.5-2.3-5.5-5.1c0-2.8,2.5-5.1,5.5-5.1c3,0,5.5,2.3,5.5,5.1C154.4,44,151.9,46.3,148.9,46.3 M147.5,32.3
							c0-0.7,0.1-1.4,0.1-2.1c1,0,1.9,0,2.9,0.1c-0.1,0.4-0.1,0.8-0.2,1.1c-0.2,0.8,0.1,1.4,0.5,1.9
							C149.7,32.9,148.7,32.5,147.5,32.3"/>
					</defs>
					<clipPath id="SVGID_17_">
						<use xlink:href="#SVGID_16_"  style="overflow:visible;"/>
					</clipPath>
					
						<linearGradient id="SVGID_18_" gradientUnits="userSpaceOnUse" x1="0.1051" y1="58.1697" x2="1.1051" y2="58.1697" gradientTransform="matrix(115.9244 4.1191 4.1191 -115.9244 -186.4158 6776.5117)">
						<stop  offset="0" style="stop-color:#FFB6DE"/>
						<stop  offset="0.1575" style="stop-color:#FBB5DF"/>
						<stop  offset="0.3129" style="stop-color:#EFB3E1"/>
						<stop  offset="0.4676" style="stop-color:#DBB0E5"/>
						<stop  offset="0.6218" style="stop-color:#C0ACEB"/>
						<stop  offset="0.7758" style="stop-color:#9CA6F2"/>
						<stop  offset="0.9275" style="stop-color:#709FFA"/>
						<stop  offset="1" style="stop-color:#599BFF"/>
					</linearGradient>
					<polygon class="st6" points="131.2,15.7 165.6,16.9 164.1,57.5 129.8,56.3 					"/>
				</g>
				<g class="st2">
					<defs>
						<path id="SVGID_19_" d="M145.8,11.1c1.1-0.4,2.4-2.9,2.2-4.5c-0.3-1.9-3-2.1-3.5,0c-2.3-1.3-3.6,0.4-3.2,1.9
							C141.8,9.9,144.7,11.4,145.8,11.1"/>
					</defs>
					<clipPath id="SVGID_20_">
						<use xlink:href="#SVGID_19_"  style="overflow:visible;"/>
					</clipPath>
					
						<linearGradient id="SVGID_21_" gradientUnits="userSpaceOnUse" x1="0.1051" y1="58.1648" x2="1.1051" y2="58.1648" gradientTransform="matrix(115.9327 4.1194 4.1194 -115.9327 -185.4058 6747.9507)">
						<stop  offset="0" style="stop-color:#FFB6DE"/>
						<stop  offset="0.1575" style="stop-color:#FBB5DF"/>
						<stop  offset="0.3129" style="stop-color:#EFB3E1"/>
						<stop  offset="0.4676" style="stop-color:#DBB0E5"/>
						<stop  offset="0.6218" style="stop-color:#C0ACEB"/>
						<stop  offset="0.7758" style="stop-color:#9CA6F2"/>
						<stop  offset="0.9275" style="stop-color:#709FFA"/>
						<stop  offset="1" style="stop-color:#599BFF"/>
					</linearGradient>
					<polygon class="st7" points="140.9,4.2 148.5,4.5 148.2,11.7 140.6,11.4 					"/>
				</g>
				<g class="st2">
					<defs>
						<path id="SVGID_22_" d="M113.3,18.9c0.8-0.3,1.7-2.1,1.6-3.2c-0.2-1.4-2.1-1.5-2.5,0c-1.6-0.9-2.6,0.3-2.2,1.3
							C110.5,18.1,112.6,19.2,113.3,18.9"/>
					</defs>
					<clipPath id="SVGID_23_">
						<use xlink:href="#SVGID_22_"  style="overflow:visible;"/>
					</clipPath>
					
						<linearGradient id="SVGID_24_" gradientUnits="userSpaceOnUse" x1="0.1051" y1="58.1646" x2="1.1051" y2="58.1646" gradientTransform="matrix(115.9327 4.1194 4.1194 -115.9327 -185.7554 6757.79)">
						<stop  offset="0" style="stop-color:#FFB6DE"/>
						<stop  offset="0.1575" style="stop-color:#FBB5DF"/>
						<stop  offset="0.3129" style="stop-color:#EFB3E1"/>
						<stop  offset="0.4676" style="stop-color:#DBB0E5"/>
						<stop  offset="0.6218" style="stop-color:#C0ACEB"/>
						<stop  offset="0.7758" style="stop-color:#9CA6F2"/>
						<stop  offset="0.9275" style="stop-color:#709FFA"/>
						<stop  offset="1" style="stop-color:#599BFF"/>
					</linearGradient>
					<polygon class="st8" points="109.8,14 115.2,14.2 115.1,19.4 109.7,19.2 					"/>
				</g>
				<g class="st2">
					<defs>
						<path id="SVGID_25_" d="M127.2,18.8c0.9-1-0.1-2.6-1.5-2c-0.2-1.9-1.8-1.9-2.4-1c-0.6,0.9-0.2,3.2,0.5,3.7
							C124.5,20,126.4,19.6,127.2,18.8"/>
					</defs>
					<clipPath id="SVGID_26_">
						<use xlink:href="#SVGID_25_"  style="overflow:visible;"/>
					</clipPath>
					
						<linearGradient id="SVGID_27_" gradientUnits="userSpaceOnUse" x1="0.1051" y1="58.1646" x2="1.1051" y2="58.1646" gradientTransform="matrix(115.9327 4.1194 4.1194 -115.9327 -185.7649 6758.0586)">
						<stop  offset="0" style="stop-color:#FFB6DE"/>
						<stop  offset="0.1575" style="stop-color:#FBB5DF"/>
						<stop  offset="0.3129" style="stop-color:#EFB3E1"/>
						<stop  offset="0.4676" style="stop-color:#DBB0E5"/>
						<stop  offset="0.6218" style="stop-color:#C0ACEB"/>
						<stop  offset="0.7758" style="stop-color:#9CA6F2"/>
						<stop  offset="0.9275" style="stop-color:#709FFA"/>
						<stop  offset="1" style="stop-color:#599BFF"/>
					</linearGradient>
					<polygon class="st9" points="122.7,14.7 128.3,14.9 128.1,20.2 122.5,20 					"/>
				</g>
			</g>
		</g>
		<g class="st1">
			<g>
				<defs>
					<rect id="SVGID_28_" x="5.5" y="4.1" width="48.5" height="54.1"/>
				</defs>
				<clipPath id="SVGID_29_">
					<use xlink:href="#SVGID_28_"  style="overflow:visible;"/>
				</clipPath>
				<g class="st10">
					<defs>
						<path id="SVGID_30_" d="M50.9,36.4L14.6,57.3c-4.1,2.4-9.2-0.6-9.2-5.3V10.2c0-4.7,5.1-7.6,9.2-5.3l36.3,20.9
							C55,28.2,55,34.1,50.9,36.4"/>
					</defs>
					<clipPath id="SVGID_31_">
						<use xlink:href="#SVGID_30_"  style="overflow:visible;"/>
					</clipPath>
					
						<linearGradient id="SVGID_32_" gradientUnits="userSpaceOnUse" x1="0.1051" y1="58.1634" x2="1.1051" y2="58.1634" gradientTransform="matrix(-56.2854 -0.1064 -0.1064 56.2854 74.4796 -3242.5679)">
						<stop  offset="0" style="stop-color:#FFB6DE"/>
						<stop  offset="0.1575" style="stop-color:#FBB5DF"/>
						<stop  offset="0.3129" style="stop-color:#EFB3E1"/>
						<stop  offset="0.4676" style="stop-color:#DBB0E5"/>
						<stop  offset="0.6218" style="stop-color:#C0ACEB"/>
						<stop  offset="0.7758" style="stop-color:#9CA6F2"/>
						<stop  offset="0.9275" style="stop-color:#709FFA"/>
						<stop  offset="1" style="stop-color:#599BFF"/>
					</linearGradient>
					<polygon class="st11" points="55,59.8 5.4,59.7 5.5,2.4 55.1,2.5 					"/>
				</g>
				<path class="st12" d="M26.8,42.5C26.2,42.9,14,49.8,14,49.8V17v-6.8c0-1-0.8-1.6-1.7-1.6c-1.3,0-1.5,1.3-1.5,1.8v42.4
					c0,0,0.2,2,2.3,1.4c0,0,15.2-8.7,15.8-9.1c0.5-0.4,1.1-1.4,0.4-2.4C28.6,41.7,27.3,42.1,26.8,42.5"/>
				<path class="st12" d="M41.4,25c-0.6-0.4-1.5-0.2-2.3,0.4c-0.4,0.4-10.8,9-10.8,9L15.1,11.4L15,17.8c2.4,4,10.5,18.3,11.2,19.6
					c0.9,1.5,2.2,1.1,2.8,0.6c0.5-0.5,9.9-8.2,9.9-8.2s0,5.9,0,6.4c0,0.7,0.5,1.6,1.5,1.6c1.4,0,1.8-1.3,1.8-1.6
					c0-0.3,0.1-8.9,0.1-9.6C42.3,26.2,42,25.4,41.4,25"/>
			</g>
		</g>
	</g>
	<g class="st0">
		<defs>
			<path id="SVGID_33_" d="M0.1,7.9v41.9c0,4.7,5.1,7.6,9.2,5.3l36.3-20.9c4.1-2.3,4.1-8.2,0-10.6L9.3,2.6c-1-0.6-2-0.8-3-0.8
				C3,1.8,0.1,4.3,0.1,7.9"/>
		</defs>
		<clipPath id="SVGID_34_">
			<use xlink:href="#SVGID_33_"  style="overflow:visible;"/>
		</clipPath>
		
			<linearGradient id="SVGID_35_" gradientUnits="userSpaceOnUse" x1="0.1051" y1="58.1769" x2="1.1051" y2="58.1769" gradientTransform="matrix(-56.2854 -0.1064 -0.1064 56.2854 69.1222 -3244.8372)">
			<stop  offset="0" style="stop-color:#FFB6DE"/>
			<stop  offset="0.1575" style="stop-color:#FBB5DF"/>
			<stop  offset="0.3129" style="stop-color:#EFB3E1"/>
			<stop  offset="0.4676" style="stop-color:#DBB0E5"/>
			<stop  offset="0.6218" style="stop-color:#C0ACEB"/>
			<stop  offset="0.7758" style="stop-color:#9CA6F2"/>
			<stop  offset="0.9275" style="stop-color:#709FFA"/>
			<stop  offset="1" style="stop-color:#599BFF"/>
		</linearGradient>
		<polygon class="st13" points="49.6,57.5 0,57.4 0.1,1.7 49.7,1.8 		"/>
	</g>
	<g class="st0">
		<defs>
			<rect id="SVGID_36_" x="0.1" y="1.6" width="162.7" height="56.6"/>
		</defs>
		<clipPath id="SVGID_37_">
			<use xlink:href="#SVGID_36_"  style="overflow:visible;"/>
		</clipPath>
		<path class="st14" d="M21.4,40.2c-0.6,0.4-12.8,7.4-12.8,7.4V14.7V7.8c0-1-0.8-1.6-1.7-1.6C5.7,6.2,5.4,7.5,5.4,8v42.4
			c0,0,0.2,2,2.3,1.4c0,0,15.2-8.7,15.8-9.1c0.5-0.4,1.1-1.4,0.4-2.4C23.2,39.5,22,39.8,21.4,40.2"/>
		<path class="st14" d="M36,22.8c-0.6-0.4-1.5-0.2-2.3,0.4c-0.4,0.4-10.8,9-10.8,9L9.7,9.1l-0.1,6.5c2.4,4,10.5,18.3,11.2,19.6
			c0.9,1.5,2.2,1.1,2.8,0.6c0.5-0.5,9.9-8.2,9.9-8.2s0,5.9,0,6.4c0,0.7,0.5,1.6,1.5,1.6c1.4,0,1.8-1.3,1.8-1.6
			c0-0.3,0.1-8.9,0.1-9.6C37,24,36.7,23.2,36,22.8"/>
	</g>
	<g class="st0">
		<defs>
			<path id="SVGID_38_" d="M116.5,26.8c-1.1,0.6-1.2,1.8-0.7,2.8c0.7,1.6,1.5,3.1,2.2,4.6c0.5,1,1.9,1.3,2.8,0.7
				c1-0.6,1.2-1.8,0.7-2.8c-0.7-1.5-1.5-3.1-2.2-4.6c-0.3-0.7-1.1-1-1.8-1C117.1,26.6,116.8,26.7,116.5,26.8"/>
		</defs>
		<clipPath id="SVGID_39_">
			<use xlink:href="#SVGID_38_"  style="overflow:visible;"/>
		</clipPath>
		
			<linearGradient id="SVGID_40_" gradientUnits="userSpaceOnUse" x1="0.1051" y1="58.1629" x2="1.1051" y2="58.1629" gradientTransform="matrix(115.9327 4.1194 4.1194 -115.9327 -189.8856 6771.5972)">
			<stop  offset="0" style="stop-color:#FFB6DE"/>
			<stop  offset="0.1575" style="stop-color:#FBB5DF"/>
			<stop  offset="0.3129" style="stop-color:#EFB3E1"/>
			<stop  offset="0.4676" style="stop-color:#DBB0E5"/>
			<stop  offset="0.6218" style="stop-color:#C0ACEB"/>
			<stop  offset="0.7758" style="stop-color:#9CA6F2"/>
			<stop  offset="0.9275" style="stop-color:#709FFA"/>
			<stop  offset="1" style="stop-color:#599BFF"/>
		</linearGradient>
		<polygon class="st15" points="115.3,26.3 122.3,26.6 122,35.8 115,35.5 		"/>
	</g>
	<g class="st0">
		<defs>
			<path id="SVGID_41_" d="M131,11c-2.5,0.8-1.4,4.8,1.1,4c5.1-1.7,14.8-3.7,19.2,0.5c1.9,1.8,4.9-1.1,2.9-2.9
				C151.3,9.9,147.2,9,143,9C138.7,9,134.3,9.9,131,11"/>
		</defs>
		<clipPath id="SVGID_42_">
			<use xlink:href="#SVGID_41_"  style="overflow:visible;"/>
		</clipPath>
		
			<linearGradient id="SVGID_43_" gradientUnits="userSpaceOnUse" x1="0.1051" y1="58.1569" x2="1.1051" y2="58.1569" gradientTransform="matrix(115.9327 4.1194 4.1194 -115.9327 -189.1954 6752.1714)">
			<stop  offset="0" style="stop-color:#FFB6DE"/>
			<stop  offset="0.1575" style="stop-color:#FBB5DF"/>
			<stop  offset="0.3129" style="stop-color:#EFB3E1"/>
			<stop  offset="0.4676" style="stop-color:#DBB0E5"/>
			<stop  offset="0.6218" style="stop-color:#C0ACEB"/>
			<stop  offset="0.7758" style="stop-color:#9CA6F2"/>
			<stop  offset="0.9275" style="stop-color:#709FFA"/>
			<stop  offset="1" style="stop-color:#599BFF"/>
		</linearGradient>
		<polygon class="st16" points="128.5,8 156.4,9 156.1,18.3 128.1,17.3 		"/>
	</g>
	<g class="st0">
		<defs>
			<path id="SVGID_44_" d="M87.8,38.3c-6-1.7-6.1-8.9-4.2-13.1c4.4,1.4,11.9,3.6,16.3,4.9c-1.8,4.9-5.6,8.5-9.9,8.5
				C89.2,38.6,88.5,38.5,87.8,38.3 M85.3,3.7c-1.5,2-3.1,4.1-4.6,6.1c-7.2-0.8-14.4,0.9-21.4,4.9c-2.3,1.3-0.2,4.9,2.1,3.6
				c4.9-2.8,10.8-4.8,16.6-4.9C69.8,24.2,61.5,35,53.2,45.8c-1.6,2.1,2,4.2,3.6,2.1c6.6-8.6,13.2-17.2,19.7-25.8
				c-3.9,8.3-5.9,21.5,5.6,24.4c10.8,2.8,18.9-7.3,21-16.7c0.1-0.4,0.1-0.8-0.1-1.1c0,0,0,0,0,0c0-0.1,0-0.1-0.1-0.2
				c-0.2-0.5-0.6-1-1.3-1.2c-7.5-2.2-15-4.6-22.5-6.9c-0.5-0.2-1.1,0-1.6,0.2c1.7-2.3,3.4-4.5,5.2-6.8c0.3,0.1,0.6,0.1,0.9,0.2
				c4.8,1.2,8.7,4.5,13.1,6.5c3.2,1.5,6.3,2.3,9.8,2.2c1.7,0,3.3-0.2,4.8-0.4c-0.1,1.5-0.2,3-0.2,4.5c-0.6-1.5-2.8-2.2-3.7-0.4
				c-1.5,3.1-3.1,6.1-4.6,9.2c-1.2,2.4,2.4,4.5,3.6,2.1c1.5-3.1,3.1-6.1,4.6-9.2c0-0.1,0-0.1,0.1-0.2c0,5.4,0.4,10.8,1.5,16.2
				c0.5,2.6,4.5,1.5,4-1.1c-1.4-7.2-1.8-14.4-1.1-21.5c3.1,0,6,0.6,8.8,3.5c0.1,0.1,0.1,0.1,0.2,0.1c-1.9,7.3-3.8,14.5-5.5,21.8
				c-0.6,2.6,3.4,3.7,4,1.1c2.5-10.5,5.4-20.9,7.9-31.4c0.6-2.6-3.4-3.7-4-1.1c-0.4,1.7-0.8,3.3-1.2,5c-2.8-2.3-5.9-3.3-9.6-3.3
				c0.5-3.5,1.2-7,2.2-10.4c0.7-2.6-3.3-3.7-4-1.1c-1.1,3.9-1.9,7.8-2.4,11.8c-2.4,0.3-4.7,0.8-7.1,0.6c-4.1-0.3-7.5-2.4-10.9-4.4
				c-2.8-1.6-5.7-2.8-8.6-3.6c1.2-1.6,2.4-3.2,3.7-4.8c1.1-1.5-0.3-3-1.8-3C86.4,2.8,85.8,3.1,85.3,3.7"/>
		</defs>
		<clipPath id="SVGID_45_">
			<use xlink:href="#SVGID_44_"  style="overflow:visible;"/>
		</clipPath>
		
			<linearGradient id="SVGID_46_" gradientUnits="userSpaceOnUse" x1="0.1051" y1="58.1596" x2="1.1051" y2="58.1596" gradientTransform="matrix(115.9327 4.1194 4.1194 -115.9327 -189.7633 6768.1538)">
			<stop  offset="0" style="stop-color:#FFB6DE"/>
			<stop  offset="0.1575" style="stop-color:#FBB5DF"/>
			<stop  offset="0.3129" style="stop-color:#EFB3E1"/>
			<stop  offset="0.4676" style="stop-color:#DBB0E5"/>
			<stop  offset="0.6218" style="stop-color:#C0ACEB"/>
			<stop  offset="0.7758" style="stop-color:#9CA6F2"/>
			<stop  offset="0.9275" style="stop-color:#709FFA"/>
			<stop  offset="1" style="stop-color:#599BFF"/>
		</linearGradient>
		<polygon class="st17" points="51.7,0 133.2,2.9 131.4,54.1 49.9,51.2 		"/>
	</g>
	<g class="st0">
		<defs>
			<path id="SVGID_47_" d="M139.8,37.7c0-2.8,2.5-5.1,5.5-5.1c3,0,5.5,2.3,5.5,5.1c0,2.8-2.5,5.1-5.5,5.1
				C142.3,42.8,139.8,40.5,139.8,37.7 M144,28.8c0-0.7,0.1-1.4,0.1-2.1c1,0,1.9,0,2.9,0.1c-0.1,0.4-0.1,0.8-0.2,1.1
				c-0.2,0.8,0.1,1.4,0.5,1.9C146.2,29.3,145.2,29,144,28.8 M143.9,21.8c0,0,0.1,0,0.1,0c0.9,0.1,1.6,0.4,2,0.8c-0.7,0-1.4,0-2.1,0
				C144,22.3,143.9,22,143.9,21.8 M138.9,17c0.1,0.3,0.1,0.5,0.2,0.8c-1.7,0.3-3.4,0.7-5,1.1c-2.6,0.6-1.5,4.6,1.1,4
				c1.5-0.4,3-0.8,4.6-1c0,0.3,0.1,0.6,0.1,1c-3.4,0.4-6.7,1.2-9.7,2.4c-2.5,0.9-1.4,5,1.1,4c2.7-1,5.7-1.8,8.7-2.2
				c0,0.6,0,1.1-0.1,1.7c-6.5,0.8-11.5,5.9-11.5,12c0,6.7,5.9,12.1,13.2,12.1c7.3,0,13.2-5.4,13.2-12.1c0-4.3-2.5-8.1-6.2-10.2
				c0.9,0.1,1.9-0.3,2.2-1.5c0.1-0.5,0.2-1.1,0.3-1.6c1.8,0.4,3.5,1,5.1,1.8c2.4,1.2,4.5-2.4,2.1-3.6c-2.3-1.1-4.7-1.9-7.3-2.4
				c-0.4-2.1-1.6-3.9-4.1-4.9c-1.2-0.5-2.4-0.7-3.7-0.7c-0.1-0.6-0.3-1.1-0.4-1.7c-0.3-1-1.1-1.5-1.9-1.5
				C139.7,14.4,138.4,15.4,138.9,17"/>
		</defs>
		<clipPath id="SVGID_48_">
			<use xlink:href="#SVGID_47_"  style="overflow:visible;"/>
		</clipPath>
		
			<linearGradient id="SVGID_49_" gradientUnits="userSpaceOnUse" x1="0.1051" y1="58.1649" x2="1.1051" y2="58.1649" gradientTransform="matrix(115.9244 4.1191 4.1191 -115.9244 -189.9305 6772.9971)">
			<stop  offset="0" style="stop-color:#FFB6DE"/>
			<stop  offset="0.1575" style="stop-color:#FBB5DF"/>
			<stop  offset="0.3129" style="stop-color:#EFB3E1"/>
			<stop  offset="0.4676" style="stop-color:#DBB0E5"/>
			<stop  offset="0.6218" style="stop-color:#C0ACEB"/>
			<stop  offset="0.7758" style="stop-color:#9CA6F2"/>
			<stop  offset="0.9275" style="stop-color:#709FFA"/>
			<stop  offset="1" style="stop-color:#599BFF"/>
		</linearGradient>
		<polygon class="st18" points="127.7,13.3 162,14.5 160.6,54 126.3,52.8 		"/>
	</g>
	<g class="st0">
		<defs>
			<path id="SVGID_50_" d="M141,3.1c-2.3-1.3-3.6,0.4-3.2,1.9c0.5,1.5,3.4,3,4.5,2.6s2.4-2.9,2.2-4.5c-0.1-1-0.9-1.5-1.7-1.5
				C142,1.6,141.3,2,141,3.1"/>
		</defs>
		<clipPath id="SVGID_51_">
			<use xlink:href="#SVGID_50_"  style="overflow:visible;"/>
		</clipPath>
		
			<linearGradient id="SVGID_52_" gradientUnits="userSpaceOnUse" x1="0.1051" y1="58.1623" x2="1.1051" y2="58.1623" gradientTransform="matrix(115.9327 4.1194 4.1194 -115.9327 -188.9205 6744.436)">
			<stop  offset="0" style="stop-color:#FFB6DE"/>
			<stop  offset="0.1575" style="stop-color:#FBB5DF"/>
			<stop  offset="0.3129" style="stop-color:#EFB3E1"/>
			<stop  offset="0.4676" style="stop-color:#DBB0E5"/>
			<stop  offset="0.6218" style="stop-color:#C0ACEB"/>
			<stop  offset="0.7758" style="stop-color:#9CA6F2"/>
			<stop  offset="0.9275" style="stop-color:#709FFA"/>
			<stop  offset="1" style="stop-color:#599BFF"/>
		</linearGradient>
		<polygon class="st19" points="137.4,1.3 144.9,1.6 144.7,8.2 137.1,7.9 		"/>
	</g>
	<g class="st0">
		<defs>
			<path id="SVGID_53_" d="M108.9,12.2c-1.6-0.9-2.6,0.3-2.2,1.3c0.3,1.1,2.4,2.1,3.2,1.9c0.8-0.3,1.7-2.1,1.6-3.2
				c-0.1-0.7-0.6-1.1-1.2-1.1C109.6,11.1,109.1,11.5,108.9,12.2"/>
		</defs>
		<clipPath id="SVGID_54_">
			<use xlink:href="#SVGID_53_"  style="overflow:visible;"/>
		</clipPath>
		
			<linearGradient id="SVGID_55_" gradientUnits="userSpaceOnUse" x1="0.1051" y1="58.1628" x2="1.1051" y2="58.1628" gradientTransform="matrix(115.9327 4.1194 4.1194 -115.9327 -189.2701 6754.2754)">
			<stop  offset="0" style="stop-color:#FFB6DE"/>
			<stop  offset="0.1575" style="stop-color:#FBB5DF"/>
			<stop  offset="0.3129" style="stop-color:#EFB3E1"/>
			<stop  offset="0.4676" style="stop-color:#DBB0E5"/>
			<stop  offset="0.6218" style="stop-color:#C0ACEB"/>
			<stop  offset="0.7758" style="stop-color:#9CA6F2"/>
			<stop  offset="0.9275" style="stop-color:#709FFA"/>
			<stop  offset="1" style="stop-color:#599BFF"/>
		</linearGradient>
		<polygon class="st20" points="106.3,10.9 111.7,11.1 111.5,15.8 106.2,15.6 		"/>
	</g>
	<g class="st0">
		<defs>
			<path id="SVGID_56_" d="M119.8,12.3c-0.6,0.9-0.2,3.2,0.5,3.7c0.7,0.5,2.7,0.1,3.4-0.7c0.9-1-0.1-2.6-1.5-2
				c-0.1-1.1-0.7-1.6-1.3-1.6C120.4,11.7,120,11.9,119.8,12.3"/>
		</defs>
		<clipPath id="SVGID_57_">
			<use xlink:href="#SVGID_56_"  style="overflow:visible;"/>
		</clipPath>
		
			<linearGradient id="SVGID_58_" gradientUnits="userSpaceOnUse" x1="0.1051" y1="58.1632" x2="1.1051" y2="58.1632" gradientTransform="matrix(115.9327 4.1194 4.1194 -115.9327 -189.2796 6754.5439)">
			<stop  offset="0" style="stop-color:#FFB6DE"/>
			<stop  offset="0.1575" style="stop-color:#FBB5DF"/>
			<stop  offset="0.3129" style="stop-color:#EFB3E1"/>
			<stop  offset="0.4676" style="stop-color:#DBB0E5"/>
			<stop  offset="0.6218" style="stop-color:#C0ACEB"/>
			<stop  offset="0.7758" style="stop-color:#9CA6F2"/>
			<stop  offset="0.9275" style="stop-color:#709FFA"/>
			<stop  offset="1" style="stop-color:#599BFF"/>
		</linearGradient>
		<polygon class="st21" points="119.2,11.5 124.8,11.7 124.6,16.6 119,16.4 		"/>
	</g>
</g>
</svg>
