<?xml version="1.0" encoding="utf-8"?>
<!-- Generator: Adobe Illustrator 19.0.0, SVG Export Plug-In . SVG Version: 6.00 Build 0)  -->
<svg version="1.1" id="图层_1" xmlns="http://www.w3.org/2000/svg" xmlns:xlink="http://www.w3.org/1999/xlink" x="0px" y="0px"
	 viewBox="0 0 50 50" style="enable-background:new 0 0 50 50;" xml:space="preserve">
<style type="text/css">
	.st0{clip-path:url(#SVGID_2_);fill:url(#SVGID_3_);}
	
		.st1{clip-path:url(#SVGID_5_);fill:none;stroke:#FFFFFF;stroke-width:2;stroke-linecap:round;stroke-linejoin:round;stroke-miterlimit:10;}
	.st2{clip-path:url(#SVGID_5_);fill:#FFFFFF;}
</style>
<g>
	<defs>
		<path id="SVGID_1_" d="M0,25c0,13.8,11.2,25,25,25c13.8,0,25-11.2,25-25C50,11.2,38.8,0,25,0C11.2,0,0,11.2,0,25"/>
	</defs>
	<clipPath id="SVGID_2_">
		<use xlink:href="#SVGID_1_"  style="overflow:visible;"/>
	</clipPath>
	
		<linearGradient id="SVGID_3_" gradientUnits="userSpaceOnUse" x1="0" y1="50" x2="1" y2="50" gradientTransform="matrix(-63.4256 -75.7015 -75.7015 63.4256 3836.7056 -3114.4929)">
		<stop  offset="0" style="stop-color:#FFB6DE"/>
		<stop  offset="0.3344" style="stop-color:#CBADE8"/>
		<stop  offset="1" style="stop-color:#599BFF"/>
	</linearGradient>
	<polygon class="st0" points="20.6,74.6 -24.6,20.6 29.4,-24.6 74.6,29.4 	"/>
</g>
<g>
	<defs>
		<rect id="SVGID_4_" width="50" height="50"/>
	</defs>
	<clipPath id="SVGID_5_">
		<use xlink:href="#SVGID_4_"  style="overflow:visible;"/>
	</clipPath>
	<path class="st1" d="M27.2,32.6V11.9c0,0,6.1,5.8,7.7,7.7"/>
	<path class="st2" d="M21.6,32.1c0,1.1-0.9,2-2,2c-1.1,0-2-0.9-2-2c0-1.1,0.9-2,2-2C20.7,30.1,21.6,31,21.6,32.1"/>
	<ellipse class="st1" cx="21.1" cy="32.6" rx="6.1" ry="5.5"/>
</g>
</svg>
