<?xml version="1.0" encoding="utf-8"?>
<!-- Generator: Adobe Illustrator 19.0.0, SVG Export Plug-In . SVG Version: 6.00 Build 0)  -->
<svg version="1.1" id="图层_1" xmlns="http://www.w3.org/2000/svg" xmlns:xlink="http://www.w3.org/1999/xlink" x="0px" y="0px"
	 viewBox="0 0 121.9 113.5" style="enable-background:new 0 0 121.9 113.5;" xml:space="preserve">
<style type="text/css">
	.st0{fill:none;stroke:#333;stroke-width:8;stroke-linecap:round;stroke-linejoin:round;stroke-miterlimit:10;}
</style>
<path class="st0" d="M96.8,4H25.1C13.5,4,4,13.5,4,25.1v63.3c0,11.6,9.5,21.1,21.1,21.1h71.7c11.6,0,21.1-9.5,21.1-21.1V25.1
	C117.9,13.5,108.4,4,96.8,4z"/>
<polyline class="st0" points="4.9,71.7 48.2,39.1 82.2,78.4 94.7,62.7 117.9,83.3 "/>
<path class="st0" d="M57.4,49.8c2.5-9.5,11.1-16.5,21.4-16.5c12.2,0,22.1,9.9,22.1,22.1c0,3.8-0.9,7.3-2.6,10.4"/>
</svg>
