<?xml version="1.0" encoding="utf-8"?>
<!-- Generator: Adobe Illustrator 19.0.0, SVG Export Plug-In . SVG Version: 6.00 Build 0)  -->
<svg version="1.1" id="图层_1" xmlns="http://www.w3.org/2000/svg" xmlns:xlink="http://www.w3.org/1999/xlink" x="0px" y="0px"
	 viewBox="0 0 43.3 43.3" style="enable-background:new 0 0 43.3 43.3;" xml:space="preserve">
<style type="text/css">
	.st0{clip-path:url(#SVGID_2_);fill:#0088E1;}
</style>
<g>
	<defs>
		<rect id="SVGID_1_" y="0" width="43.3" height="43.3"/>
	</defs>
	<clipPath id="SVGID_2_">
		<use xlink:href="#SVGID_1_"  style="overflow:visible;"/>
	</clipPath>
	<path class="st0" d="M21.8,0C9.8-0.1,0.1,9.6,0,21.6s9.6,21.7,21.6,21.8c12,0.1,21.7-9.6,21.8-21.6C43.4,9.8,33.7,0.1,21.8,0
		 M33.4,26.2v0.3l0,0.2l0,0.3l-0.1,0.3l-0.1,0.3l0,0.1L33,27.9l0,0.1l-0.1,0.1l-0.1,0.1l-0.1,0.1l-0.1,0.1l-0.1,0.1l-0.1,0l-0.1,0
		l-0.1,0h-0.1l-0.1,0l-0.1-0.1l-0.1,0l-0.1,0L32,28.3l-0.1-0.1l-0.1-0.1l-0.1-0.2l-0.1-0.2l-0.1-0.1l-0.1-0.2l-0.1-0.3l-0.2-0.3l0,0
		h0l-0.1,0l0,0.1l-0.1,0.1l-0.1,0.3l-0.2,0.4l-0.2,0.5l-0.1,0.3l-0.2,0.3l-0.2,0.3l-0.2,0.3l-0.1,0.1l-0.1,0.1L29.2,30l0,0l0,0
		l0.1,0.1l0.6,0.3l0.3,0.1l0.2,0.1l0.2,0.2l0.2,0.2l0.1,0.1l0.1,0.1l0.1,0.1l0.1,0.1l0,0.1l0,0.1l0,0.1l0,0.1l0,0.1v0.1l0,0.1l0,0.1
		l0,0.1l0,0.1l-0.1,0.1l-0.1,0.1L31,32.8l-0.1,0.1L30.8,33l-0.2,0.1l-0.2,0.1l-0.2,0.1l-0.2,0.1l-0.1,0l-0.1,0l-0.3,0.1l-0.3,0.1
		l-0.3,0.1l-0.3,0.1l-0.3,0l-0.3,0h-1l-0.4,0l-0.3,0l-0.4-0.1l-0.4,0l-0.4-0.1l-0.4-0.1l-0.4-0.1L24,33.3l-0.4-0.1L23.3,33l-0.2-0.1
		l-0.2-0.1l-0.1,0l-0.1,0h-0.3l-0.3,0l-0.2,0l-0.2,0l-0.1,0.1L21.3,33L21,33.1l-0.3,0.2l-0.2,0.1l-0.2,0.1l-0.4,0.2l-0.2,0.1
		l-0.2,0.1l-0.3,0.1l-0.2,0l-0.2,0l-0.2,0l-0.3,0h-1.1l-0.6,0l-0.6-0.1l-0.3,0l-0.3,0l-0.3,0l-0.3-0.1l-0.3-0.1l-0.3-0.1L14,33.4
		l-0.2-0.1l-0.2-0.1l-0.2-0.1L13.2,33l-0.1-0.1l-0.1-0.1L13,32.7L13,32.7l0-0.1l0-0.1l-0.1-0.2l0-0.1l0-0.1v-0.1l0-0.1v-0.1l0-0.1
		v-0.2l0-0.1l0-0.1l0-0.1L13,31L13,31l0-0.1l0.1-0.1l0.1-0.1l0.1-0.1l0.1-0.1l0.1,0l0.1-0.1l0.1-0.1l0.1,0l0.1,0l0.2,0l0.2,0l0.2,0
		l0.2,0l0.1,0h0l0,0v0l0-0.1l-0.1-0.1l-0.3-0.2l-0.2-0.1l-0.2-0.2l-0.2-0.2L13.6,29l-0.2-0.3l-0.1-0.2l-0.1-0.2l-0.1-0.2L13,28
		l-0.1-0.2l-0.1-0.2l-0.1-0.2l-0.1-0.3l-0.1-0.2l-0.1-0.3l0,0h0l0,0h0l0,0l0,0l0,0.1l0,0.1l0,0.1l0,0.1L12.1,27L12,27.2l-0.1,0.1
		l-0.1,0.1l-0.1,0.2l-0.1,0.1l-0.1,0.1L11.3,28l-0.1,0.1L11,28.2l-0.2,0.1l-0.2,0l-0.2,0h0l0,0l0-0.1l-0.1,0L10.2,28l0-0.1l0-0.1
		l0-0.1l0-0.1L10,27.2l0-0.2v-0.6l0-0.5l0-0.2l0-0.2l0-0.3l0.1-0.2l0.1-0.3l0.1-0.3l0.1-0.3l0.1-0.3l0.1-0.3l0.1-0.3L11,23l0.2-0.3
		l0.2-0.3l0.2-0.3l0.2-0.2l0.2-0.2l0.2-0.2l0.1-0.1l0.1-0.1l0.2-0.2l0.2-0.2l0.3-0.3l0.2-0.2l0.1-0.1l0-0.1l0-0.2l0-0.1v-0.4l0-0.2
		l0-0.2l0.1-0.2l0.1-0.2l0.1-0.2l0.1-0.2v-0.1l0-0.1l0-0.2l0.1-0.2l0.1-0.2l0-0.1l0.1-0.1l0.1-0.1l0.1-0.1v-0.5l0-0.3l0-0.3l0.1-0.4
		l0.1-0.4l0.1-0.2l0.1-0.2l0.1-0.2l0.1-0.2l0.1-0.3l0.1-0.2l0.1-0.3l0.2-0.3l0.1-0.1l0.1-0.1l0.2-0.3l0.2-0.3l0.2-0.3l0.2-0.3
		l0.2-0.3l0.3-0.3l0.3-0.3l0.2-0.2l0.2-0.2l0.2-0.2l0.3-0.2l0.3-0.1l0.3-0.1l0.3-0.2l0.3-0.1l0.3-0.1l0.3-0.1l0.3-0.1l0.3-0.1
		l0.3-0.1l0.3,0l0.3,0l0.4,0h1.1l0.4,0l0.4,0l0.4,0l0.3,0.1l0.4,0.1L25,9.8l0.4,0.1l0.3,0.1l0.3,0.1l0.3,0.1l0.3,0.2l0.3,0.2
		l0.3,0.2l0.3,0.2l0.1,0.1l0.1,0.1l0.2,0.2l0.2,0.2l0.2,0.2l0.2,0.2l0.2,0.2l0.2,0.2l0.1,0.3l0.1,0.2l0.1,0.3l0.1,0.2l0.2,0.5
		l0.1,0.2l0.1,0.2l0.1,0.2l0.1,0.2l0,0.2l0.1,0.2l0.1,0.4l0.1,0.4l0,0.4l0,0.3l0.1,0.4l0,0.1l0,0.1l0.1,0.2l0.1,0.2l0.1,0.2l0.1,0.2
		l0.1,0.2l0.1,0.2l0.1,0.2l0,0.2l0,0.1l0,0.1v0.1l0,0.1v0.2l0,0.1l-0.1,0.3l-0.1,0.1l-0.1,0.2v0l0,0.1l0.1,0.1l0.3,0.5l0.3,0.4
		l0.1,0.2L32,22l0.1,0.3l0.2,0.3l0.2,0.4l0.2,0.4l0.1,0.2l0.1,0.2L33,24l0.1,0.2l0.1,0.2l0.1,0.2l0.1,0.4l0.1,0.4l0,0.4V26.2z"/>
</g>
</svg>
