<?xml version="1.0" encoding="utf-8"?>
<!-- Generator: Adobe Illustrator 19.0.0, SVG Export Plug-In . SVG Version: 6.00 Build 0)  -->
<svg version="1.1" id="图层_1" xmlns="http://www.w3.org/2000/svg" xmlns:xlink="http://www.w3.org/1999/xlink" x="0px" y="0px"
	 viewBox="0 0 24 24" style="enable-background:new 0 0 24 24;" xml:space="preserve">
<style type="text/css">
	.st0{clip-path:url(#SVGID_2_);fill:none;stroke:#666666;stroke-linecap:round;stroke-linejoin:round;stroke-miterlimit:10;}
	.st1{clip-path:url(#SVGID_2_);fill:#666666;}
</style>
<g>
	<defs>
		<rect id="SVGID_1_" width="24" height="24"/>
	</defs>
	<clipPath id="SVGID_2_">
		<use xlink:href="#SVGID_1_"  style="overflow:visible;"/>
	</clipPath>
	<path class="st0" d="M9.5,23.5h-6c-1.7,0-3-1.3-3-3v-6c0-1.7,1.3-3,3-3h6"/>
	<polyline class="st0" points="2.5,16.5 2.5,13.5 5.5,13.5 	"/>
	<path class="st1" d="M21,1c1.1,0,2,0.9,2,2v18c0,1.1-0.9,2-2,2h-7c-1.1,0-2-0.9-2-2V3c0-1.1,0.9-2,2-2H21 M21,0h-7
		c-1.7,0-3,1.3-3,3v18c0,1.7,1.3,3,3,3h7c1.7,0,3-1.3,3-3V3C24,1.3,22.7,0,21,0"/>
	<polyline class="st0" points="18.5,2.5 21.5,2.5 21.5,5.5 	"/>
	<polyline class="st0" points="16.5,21.5 13.5,21.5 13.5,18.5 	"/>
</g>
</svg>
