<?xml version="1.0" encoding="utf-8"?>
<!-- Generator: Adobe Illustrator 19.0.0, SVG Export Plug-In . SVG Version: 6.00 Build 0)  -->
<svg version="1.1" id="图层_1" xmlns="http://www.w3.org/2000/svg" xmlns:xlink="http://www.w3.org/1999/xlink" x="0px" y="0px"
	 viewBox="0 0 21.8 20.3" style="enable-background:new 0 0 21.8 20.3;" xml:space="preserve">
<style type="text/css">
	.st0{clip-path:url(#SVGID_2_);fill:#666666;}
	.st1{clip-path:url(#SVGID_2_);fill:none;stroke:#666666;stroke-miterlimit:10;}
	.st2{clip-path:url(#SVGID_2_);fill:none;stroke:#666666;stroke-linecap:round;stroke-miterlimit:10;}
</style>
<g>
	<defs>
		<rect id="SVGID_1_" y="0" width="21.8" height="20.3"/>
	</defs>
	<clipPath id="SVGID_2_">
		<use xlink:href="#SVGID_1_"  style="overflow:visible;"/>
	</clipPath>
	<path class="st0" d="M14.6,1c0,0,0.1,0,0.2,0.1l5,5.1c0.1,0.1,0.1,0.3,0,0.4L8.4,18.5L1,19.3l0,0l1.4-6.4l12-11.8
		C14.5,1,14.6,1,14.6,1 M14.6,0c-0.3,0-0.6,0.1-0.9,0.4l-12.3,12L0,19.1c-0.1,0.7,0.4,1.3,1,1.3c0,0,0.1,0,0.1,0l7.7-0.8L20.6,7.4
		c0.5-0.5,0.5-1.3,0-1.8l-5.1-5.2C15.4,0.1,15,0,14.6,0"/>
	<line class="st1" x1="2.2" y1="12.8" x2="8.4" y2="19.1"/>
	<line class="st2" x1="0.8" y1="19.7" x2="21.3" y2="19.7"/>
</g>
</svg>
