<?xml version="1.0" encoding="utf-8"?>
<!-- Generator: Adobe Illustrator 19.0.0, SVG Export Plug-In . SVG Version: 6.00 Build 0)  -->
<svg version="1.1" id="图层_1" xmlns="http://www.w3.org/2000/svg" xmlns:xlink="http://www.w3.org/1999/xlink" x="0px" y="0px"
	 width="180px" height="180px" viewBox="0 0 180 180" style="enable-background:new 0 0 180 180;" xml:space="preserve">
<style type="text/css">
	.st0{clip-path:url(#SVGID_2_); fill: #777777;}
</style>
<g>
	<defs>
		<rect id="SVGID_1_" width="180" height="180"/>
	</defs>
	<clipPath id="SVGID_2_">
		<use xlink:href="#SVGID_1_"  style="overflow:visible;"/>
	</clipPath>
	<path class="st0" d="M90,0C40,0,0,40.6,0,90s40.6,90,90,90s90-40.6,90-90S140,0,90,0 M90,171.3c-44.4,0-80.6-36.3-80.6-80.6
		S45.6,10,90,10s80.6,36.3,80.6,80.6S135,171.3,90,171.3"/>
	<path class="st0" d="M148.1,93.8H93.8v-55c0-2.5-1.9-4.4-4.4-4.4S85,36.3,85,38.8v60c0,2.5,1.9,4.4,4.4,4.4H90h58.1
		c2.5,0,4.4-1.9,4.4-4.4C152.5,95.6,150.6,93.8,148.1,93.8"/>
</g>
</svg>
