<?xml version="1.0" encoding="utf-8"?>
<!-- Generator: Adobe Illustrator 19.0.0, SVG Export Plug-In . SVG Version: 6.00 Build 0)  -->
<svg version="1.1" id="图层_1" xmlns="http://www.w3.org/2000/svg" xmlns:xlink="http://www.w3.org/1999/xlink" x="0px" y="0px"
	 viewBox="0 0 251.3 226.3" style="enable-background:new 0 0 251.3 226.3;" xml:space="preserve">
<style type="text/css">
	
		.st0{clip-path:url(#SVGID_2_);fill:none;stroke:#333;stroke-width:16;stroke-linecap:round;stroke-linejoin:round;stroke-miterlimit:10;}
</style>
<g>
	<defs>
		<rect id="SVGID_1_" x="0" y="0" width="251.3" height="226.3"/>
	</defs>
	<clipPath id="SVGID_2_">
		<use xlink:href="#SVGID_1_"  style="overflow:visible;"/>
	</clipPath>
	<path class="st0" d="M125.7,141.3c-36.7,0-66.7-30-66.7-66.7C59,38,89,8,125.7,8s66.7,30,66.7,66.7
		C192.3,111.3,162.3,141.3,125.7,141.3z"/>
	<path class="st0" d="M74.7,218.3C38,218.3,8,188.3,8,151.7C8,115,38,85,74.7,85s66.7,30,66.7,66.7
		C141.3,188.3,111.3,218.3,74.7,218.3z"/>
	<path class="st0" d="M176.7,218.3c-36.7,0-66.7-30-66.7-66.7C110,115,140,85,176.7,85s66.7,30,66.7,66.7
		C243.3,188.3,213.3,218.3,176.7,218.3z"/>
</g>
</svg>
