<?xml version="1.0" encoding="utf-8"?>
<!-- Generator: Adobe Illustrator 19.0.0, SVG Export Plug-In . SVG Version: 6.00 Build 0)  -->
<svg version="1.1" id="Layer_1" xmlns="http://www.w3.org/2000/svg" xmlns:xlink="http://www.w3.org/1999/xlink" x="0px" y="0px"
	 viewBox="0 0 255.7 232.9" style="enable-background:new 0 0 255.7 232.9;" xml:space="preserve">
<style type="text/css">
	.st0{fill:none;stroke:#333333;stroke-width:12;stroke-linecap:round;stroke-linejoin:round;stroke-miterlimit:10;}
</style>
<path class="st0" d="M234,191.9c-20.9,0-41.8,0-62.6,0c-37.3,0-39.7,0-77,0c-13.4,0-26.7,0-40.1,0c-9.2,0-18.7,0.6-27.6-2.2
	C12.5,185.3,5,172.5,6.1,158.1c0.5-6.9,3.5-13.9,5.4-20.6C20.2,106.5,38.7,37,47.5,6"/>
<path class="st0" d="M47.5,6h167.4c40.9,0,34.4,36.4,34.4,36.4l-21.4,80.2"/>
<line class="st0" x1="199.1" y1="157.1" x2="234" y2="192"/>
<line class="st0" x1="199.1" y1="226.9" x2="234" y2="192"/>
<circle class="st0" cx="93.5" cy="60.1" r="20.6"/>
<path class="st0" d="M20.5,123.8c0,0,20.1,22,45.9,22c0,0,18.8,5.9,81.1-48.7c0,0,47.3-47.5,85.3-16.4"/>
</svg>
