<?xml version="1.0" encoding="utf-8"?>
<!-- Generator: Adobe Illustrator 19.0.0, SVG Export Plug-In . SVG Version: 6.00 Build 0)  -->
<svg version="1.1" id="图层_1" xmlns="http://www.w3.org/2000/svg" xmlns:xlink="http://www.w3.org/1999/xlink" x="0px" y="0px"
	 viewBox="0 0 21.7 20.9" style="enable-background:new 0 0 21.7 20.9;" xml:space="preserve">
<style type="text/css">
	.st0{fill:none;stroke:#333;stroke-width:1.5;stroke-linecap:round;stroke-linejoin:round;stroke-miterlimit:10;}
</style>
<path class="st0" d="M6.2,20.1h1.6c0.4,0,0.7-0.4,0.9-0.9c0.1-0.2,0.2-0.4,0.4-0.5c0.1-0.2,0.2-0.2,0.2-0.2h3.1
	c0.2,0,0.5,0.4,0.6,0.7c0.3,0.4,0.6,0.9,1,0.9h1.5c0.4,0,0.7-0.6,1-1.8c0.1-0.4,0.4-1.1,0.5-1.3c0,0,0.1,0.2,0.3,0.5
	c0.1,0.3,0.3,0.7,0.4,1.1c0.4,1,0.6,1.6,0.9,1.6H20c0.5,0,1-0.4,1-1v-7.5c0-0.5-0.2-1-0.7-1.4c-0.3-0.3-0.7-0.5-1-0.6
	c0,0-1-0.4-2.7-0.8c-0.8-0.2-1.6-0.3-2.4-0.4c0,0,0,0,0,0V3.9c0-1.7-1.4-3.2-3.2-3.2h-0.4c-1.7,0-3.2,1.4-3.2,3.2v4.5
	C6.6,8.5,5.8,8.7,5,8.8C3.6,9.1,2.6,9.5,2.2,9.7c-0.5,0.3-1.5,0.8-1.5,2v7.5c0,0.5,0.4,1,1,1h1.4c0.4,0,0.5-0.5,0.9-1.6
	c0.1-0.4,0.2-0.7,0.4-1c0.1-0.3,0.2-0.4,0.2-0.5c0,0.1,0.1,0.2,0.2,0.4C4.9,17.7,5,18,5.1,18.3C5.5,19.5,5.8,20.1,6.2,20.1z"/>
<line class="st0" x1="0.8" y1="13.7" x2="20.9" y2="13.7"/>
</svg>
